<?xml version="1.0" encoding="UTF-8"?>
<svg id="Layer_1" xmlns="http://www.w3.org/2000/svg" version="1.1" viewBox="0 0 519.08 87.64">
  <!-- Generator: Adobe Illustrator 30.6.0, SVG Export Plug-In . SVG Version: 2.1.4 Build 109)  -->
  <defs>
    <style>
      .st0 {
        fill: #262b63;
      }

      .st1 {
        fill: #98d3c9;
      }
    </style>
  </defs>
  <g>
    <g>
      <polygon class="st0" points="55.3 .09 59.34 .09 66.69 .11 36.04 35.73 4.04 73 4 58.1 54.16 .02 55.3 .09"/>
      <path class="st0" d="M54.05,39.35L12.79,87.53l-12.79-.04L54.06,24.59c.22,5.14.1,9.96,0,14.76Z"/>
    </g>
    <g>
      <path class="st1" d="M87.67.11l-25.72,30.04-.09-15L74.83.05c.4-.14,12.84.06,12.84.06Z"/>
      <polygon class="st1" points="33.9 87.41 29.65 87.64 21.15 87.42 27.31 80.17 53.28 49.8 53.39 64.51 33.9 87.41"/>
    </g>
    <g>
      <polygon class="st0" points="99.71 .09 108.89 .09 61.28 55.54 61.18 40.63 96.25 .07 99.71 .09"/>
      <polygon class="st0" points="54.88 87.5 42.08 87.46 108.91 10.16 108.79 25.28 54.88 87.5"/>
    </g>
  </g>
  <g>
    <path class="st0" d="M129.92,65.95V21.08l36.07,30.45v-29.23h7.57v45.15l-36.02-30.45v28.95h-7.63Z"/>
    <path class="st0" d="M227.79,65.95h-40.86V22.3h40.86v7.4h-33.23v10.8h22.43v7.24h-22.43v10.8h33.23v7.4Z"/>
    <path class="st0" d="M272.99,22.19h9.63l-18.15,21.88,18.15,21.88h-9.63l-13.31-16.03-13.31,16.03h-9.69l18.15-21.88-18.15-21.88h9.69l13.31,16.03,13.31-16.03Z"/>
    <path class="st0" d="M296.6,65.95h-8.52l22.71-45.54,23.49,45.54h-8.57l-4.29-8.02h-20.71l-4.12,8.02ZM303.67,51.25h14.7l-7.46-15.2-7.24,15.2Z"/>
    <path class="st0" d="M343.14,65.95V21.08l36.07,30.45v-29.23h7.57v45.15l-36.02-30.45v28.95h-7.63Z"/>
    <path class="st0" d="M404.99,59.66c-4.71-4.23-7.07-9.41-7.07-15.53s2.36-11.37,7.07-15.53c4.71-4.23,10.39-6.35,17.04-6.35s12.23,2.12,16.98,6.35c4.71,4.23,7.07,9.41,7.07,15.53s-2.38,11.3-7.13,15.53c-4.71,4.23-10.35,6.35-16.92,6.35s-12.32-2.12-17.04-6.35ZM433.66,54.31c3.23-2.86,4.84-6.25,4.84-10.19s-1.62-7.33-4.84-10.19c-3.19-2.82-7.07-4.23-11.64-4.23s-8.5,1.41-11.69,4.23c-3.19,2.86-4.79,6.25-4.79,10.19s1.59,7.33,4.79,10.19c3.19,2.82,7.09,4.23,11.69,4.23s8.44-1.41,11.64-4.23Z"/>
    <path class="st0" d="M476.36,50.14h-11.52v15.81h-7.63V22.3h28.45c3.86,0,7.16,1.37,9.91,4.12,2.75,2.75,4.12,6.01,4.12,9.8s-1.3,6.98-3.9,9.57c-2.56,2.6-5.79,3.99-9.69,4.18l14.98,15.98h-9.85l-14.86-15.81ZM485.32,42.79c1.89,0,3.49-.65,4.79-1.95s1.95-2.86,1.95-4.68-.65-3.38-1.95-4.68c-1.3-1.3-2.89-1.95-4.79-1.95h-20.49v13.25h20.49Z"/>
  </g>
</svg>
