<svg xmlns="http://www.w3.org/2000/svg" width="1920" height="1080" viewBox="0 0 1920 1080" role="img" aria-labelledby="title desc">
  <title id="title">Spreadsheets transforming into a business dashboard</title>
  <desc id="desc">Spreadsheet grids fade away as a modern enterprise dashboard emerges in the center.</desc>
  <defs>
    <linearGradient id="bg" x1="0" x2="1" y1="0" y2="1">
      <stop offset="0" stop-color="#f7f8fb"/>
      <stop offset=".54" stop-color="#eef2f8"/>
      <stop offset="1" stop-color="#dfe4ee"/>
    </linearGradient>
    <filter id="shadow" x="-20%" y="-20%" width="140%" height="140%">
      <feDropShadow dx="0" dy="28" stdDeviation="30" flood-color="#08090d" flood-opacity=".18"/>
    </filter>
  </defs>
  <rect width="1920" height="1080" fill="url(#bg)"/>
  <g opacity=".42">
    <g transform="translate(150 195) rotate(-8)">
      <rect width="520" height="330" rx="22" fill="#ffffff"/>
      <path d="M0 72 H520 M0 144 H520 M0 216 H520 M0 288 H520 M104 0 V330 M208 0 V330 M312 0 V330 M416 0 V330" stroke="#b9c3d3" stroke-width="3"/>
    </g>
    <g transform="translate(1290 230) rotate(7)">
      <rect width="500" height="315" rx="22" fill="#ffffff"/>
      <path d="M0 70 H500 M0 140 H500 M0 210 H500 M0 280 H500 M100 0 V315 M200 0 V315 M300 0 V315 M400 0 V315" stroke="#b9c3d3" stroke-width="3"/>
    </g>
    <g transform="translate(245 650) rotate(5)">
      <rect width="470" height="260" rx="20" fill="#ffffff"/>
      <path d="M0 65 H470 M0 130 H470 M0 195 H470 M94 0 V260 M188 0 V260 M282 0 V260 M376 0 V260" stroke="#b9c3d3" stroke-width="3"/>
    </g>
  </g>
  <g filter="url(#shadow)">
    <rect x="690" y="220" width="720" height="585" rx="34" fill="#ffffff"/>
    <rect x="735" y="270" width="630" height="82" rx="20" fill="#08090d"/>
    <circle cx="780" cy="311" r="13" fill="#c74634"/>
    <circle cx="820" cy="311" r="13" fill="#f4b84a"/>
    <circle cx="860" cy="311" r="13" fill="#36a269"/>
    <rect x="735" y="395" width="180" height="150" rx="22" fill="#f7f8fb"/>
    <rect x="955" y="395" width="180" height="150" rx="22" fill="#f7f8fb"/>
    <rect x="1175" y="395" width="190" height="150" rx="22" fill="#f7f8fb"/>
    <path d="M770 505 C815 438 850 492 886 430" fill="none" stroke="#155eef" stroke-width="14" stroke-linecap="round"/>
    <path d="M990 500 H1095 M990 462 H1056 M990 424 H1110" stroke="#c74634" stroke-width="13" stroke-linecap="round"/>
    <circle cx="1268" cy="470" r="48" fill="none" stroke="#155eef" stroke-width="18"/>
    <path d="M1268 422 A48 48 0 0 1 1312 490" fill="none" stroke="#c74634" stroke-width="18" stroke-linecap="round"/>
    <rect x="735" y="590" width="630" height="150" rx="24" fill="#f7f8fb"/>
    <path d="M785 700 L875 635 L970 670 L1065 615 L1165 650 L1295 612" fill="none" stroke="#155eef" stroke-width="16" stroke-linecap="round" stroke-linejoin="round"/>
    <path d="M785 700 H1310" stroke="#d5dce8" stroke-width="4" stroke-linecap="round"/>
  </g>
  <path d="M560 455 C625 440 650 403 690 370" fill="none" stroke="#c74634" stroke-width="10" stroke-linecap="round" opacity=".62"/>
  <path d="M1470 455 C1405 440 1380 403 1340 370" fill="none" stroke="#155eef" stroke-width="10" stroke-linecap="round" opacity=".62"/>
</svg>
